<?xml version="1.0" encoding="UTF-8" standalone="no"?>
<svg
   xmlns:dc="http://purl.org/dc/elements/1.1/"
   xmlns:cc="http://creativecommons.org/ns#"
   xmlns:rdf="http://www.w3.org/1999/02/22-rdf-syntax-ns#"
   xmlns:svg="http://www.w3.org/2000/svg"
   xmlns="http://www.w3.org/2000/svg"
   xmlns:sodipodi="http://sodipodi.sourceforge.net/DTD/sodipodi-0.dtd"
   xmlns:inkscape="http://www.inkscape.org/namespaces/inkscape"
   version="1.1"
   x="0px"
   y="0px"
   viewBox="0 0 100 100"
   enable-background="new 0 0 50 50"
   xml:space="preserve"
   id="svg28"
   sodipodi:docname="noun_scientific mind_1932954.svg"
   width="100"
   height="100"
   inkscape:version="0.92.1 r15371"><metadata
     id="metadata34"><rdf:RDF><cc:Work
         rdf:about=""><dc:format>image/svg+xml</dc:format><dc:type
           rdf:resource="http://purl.org/dc/dcmitype/StillImage" /><dc:title></dc:title></cc:Work></rdf:RDF></metadata><defs
     id="defs32" /><sodipodi:namedview
     pagecolor="#ffffff"
     bordercolor="#666666"
     borderopacity="1"
     objecttolerance="10"
     gridtolerance="10"
     guidetolerance="10"
     inkscape:pageopacity="0"
     inkscape:pageshadow="2"
     inkscape:window-width="1366"
     inkscape:window-height="704"
     id="namedview30"
     showgrid="false"
     inkscape:zoom="3.776"
     inkscape:cx="29.766949"
     inkscape:cy="52.436441"
     inkscape:window-x="0"
     inkscape:window-y="27"
     inkscape:window-maximized="1"
     inkscape:current-layer="svg28" /><g
     id="g22"
     transform="matrix(1.7064479,0,0,1.7064479,7.327421,7.3252829)"><g
       id="g20"><g
         id="g18"><path
           d="m 21.3,16.8 c -0.3,0.6 -0.6,1.2 -0.8,1.8 -3,-0.5 -4.6,-1.4 -4.7,-1.8 0.2,-0.4 1.7,-1.3 4.7,-1.9 0.2,0.7 0.5,1.3 0.8,1.9 z"
           id="path2"
           inkscape:connector-curvature="0" /><path
           d="m 22,12.4 c -1,-2.9 -1,-4.6 -0.8,-5 0.4,0 1.9,0.9 3.9,3.2 -0.4,0.5 -0.8,1.1 -1.2,1.7 -0.6,0 -1.2,0 -1.9,0.1 z"
           id="path4"
           inkscape:connector-curvature="0" /><path
           d="m 24,21.4 c 0.4,0.5 0.8,1.1 1.2,1.6 -2,2.3 -3.5,3.3 -3.9,3.2 -0.3,-0.4 -0.3,-2.1 0.7,-5 0.7,0.1 1.3,0.2 2,0.2 z"
           id="path6"
           inkscape:connector-curvature="0" /><path
           d="m 28.7,18 c 0,0 0,0 0,0 -0.9,1.6 -3.2,1.6 -4,0 0,0 0,0 0,0 0,0 0,0 0,0 -0.4,-0.7 -0.4,-1.6 0,-2.3 0,0 0,0 0,0 0,0 0,0 0,0 0.9,-1.5 3.1,-1.5 4,0 0,0 0,0 0,0 0,0 0,0 0,0 0.4,0.7 0.4,1.6 0,2.3 0,0 0,0 0,0 z"
           id="path8"
           inkscape:connector-curvature="0" /><path
           d="m 31.3,21.3 c 1,2.9 1,4.6 0.7,5 -0.4,0.1 -1.9,-0.9 -3.9,-3.2 0.4,-0.5 0.8,-1.1 1.2,-1.6 0.7,-0.1 1.3,-0.2 2,-0.2 z"
           id="path10"
           inkscape:connector-curvature="0" /><path
           d="m 29.3,12.2 c -0.4,-0.6 -0.8,-1.1 -1.2,-1.7 2,-2.3 3.5,-3.2 3.9,-3.2 0.3,0.4 0.3,2.1 -0.8,5 -0.6,0 -1.2,-0.1 -1.9,-0.1 z"
           id="path12"
           inkscape:connector-curvature="0" /><path
           d="m 37.5,16.8 c -0.2,0.4 -1.7,1.3 -4.7,1.9 -0.3,-0.6 -0.5,-1.2 -0.8,-1.8 0.3,-0.6 0.6,-1.2 0.8,-1.8 3,0.5 4.6,1.3 4.7,1.7 z"
           id="path14"
           inkscape:connector-curvature="0" /><path
           d="m 13.6,6.8 c -3.9,3.9 -1.2,6.8 -3.3,10.3 -0.7,1.1 -1.8,2.8 -3.5,5 -3.5,4.4 1.5,5.5 1.5,5.5 0,0 -0.5,1.3 -0.6,1.9 -0.3,1.6 0.6,2.7 1,3.7 0.2,0.3 0.3,0.6 0.1,0.9 -1,2.5 0.3,4.2 2,4.4 8.5,1.3 7.5,2.5 7.5,2.5 v 8 l 17,-3.1 c 0,0 0,-2.8 0.2,-6.1 C 35.7,36.6 37.7,35 37.7,35 56.3,20.1 32.6,-12.1 13.6,6.8 Z m 20.1,14.1 c 1.1,3.2 1.4,6.3 -0.5,7.3 -1.9,1.1 -4.4,-0.7 -6.6,-3.3 -2.2,2.5 -4.7,4.3 -6.6,3.3 -1.9,-1.1 -1.5,-4.1 -0.5,-7.3 -3.3,-0.6 -6.1,-1.9 -6.1,-4.1 0,-2.2 2.8,-3.4 6.1,-4.1 -1.1,-3.2 -1.4,-6.2 0.5,-7.3 1.9,-1.1 4.4,0.7 6.6,3.3 2.2,-2.5 4.7,-4.3 6.6,-3.2 1.9,1.1 1.5,4.1 0.5,7.3 3.3,0.7 6.1,1.9 6.1,4.1 0,2.1 -2.8,3.3 -6.1,4 z"
           id="path16"
           inkscape:connector-curvature="0" /></g></g></g></svg>